<?xml version="1.0" encoding="UTF-8"?>
<svg version="1.1" xmlns="http://www.w3.org/2000/svg" width="512" height="512">
<path d="M0 0 C7.31012763 7.64240616 10.18742809 16.49084027 12.75 26.5625 C13.25710616 28.47984192 13.76421271 30.39718373 14.2713623 32.31451416 C14.77919098 34.24607465 15.27828687 36.17992411 15.77734375 38.11376953 C16.69787796 41.67344574 17.64112625 45.22613974 18.59375 48.77734375 C19.1466086 50.851356 19.69873481 52.92556366 20.25 55 C20.50523437 55.95865967 20.76046875 56.91731934 21.0234375 57.9050293 C21.25289062 58.78457275 21.48234375 59.66411621 21.71875 60.5703125 C21.91919922 61.33359863 22.11964844 62.09688477 22.32617188 62.88330078 C22.75 64.875 22.75 64.875 22.75 67.875 C23.77452271 68.00717926 24.79904541 68.13935852 25.85461426 68.27554321 C29.35941707 68.81489361 32.65552279 69.54609911 36.07617188 70.46630859 C37.90054779 70.95405762 37.90054779 70.95405762 39.76177979 71.45166016 C41.08080103 71.80880417 42.39979018 72.1660667 43.71875 72.5234375 C45.10585359 72.89614272 46.4930422 73.26853165 47.88031006 73.640625 C51.57640311 74.6333557 55.27098131 75.63160695 58.96510315 76.6316452 C61.25006445 77.25001744 63.53532562 77.86726932 65.82067871 78.48419189 C75.47995063 81.09220867 85.13580302 83.7126475 94.78945923 86.34136963 C96.6331716 86.84320103 98.47710099 87.34423493 100.32104492 87.84521484 C106.07617283 89.40915942 111.82860823 90.98199818 117.57495117 92.57794189 C119.17517402 93.02141451 120.77623666 93.46186934 122.37817383 93.89910889 C124.55174227 94.49364515 126.72152657 95.10032557 128.890625 95.7109375 C130.06141602 96.03626465 131.23220703 96.3615918 132.43847656 96.69677734 C141.59165149 99.95342894 148.34166501 105.18207276 152.75 113.875 C158.57335391 129.29234319 152.49006202 144.95811095 148.1875 160 C147.2417738 163.34074709 146.30182221 166.68279865 145.37477112 170.02877808 C144.80098173 172.09657213 144.21611769 174.16133387 143.61875916 176.22244263 C143.35841385 177.15466644 143.09806854 178.08689026 142.82983398 179.04736328 C142.59666977 179.86149689 142.36350555 180.67563049 142.12327576 181.51443481 C141.65100967 184.5010067 141.68501884 186.00939491 142.75 188.875 C144.74915705 191.43318175 147.04074854 193.66019507 149.36181641 195.92504883 C150.39855499 196.96025414 150.39855499 196.96025414 151.45623779 198.01637268 C153.74547949 200.29772536 156.04845575 202.56468386 158.3515625 204.83203125 C159.94856565 206.41902845 161.54461155 208.00698947 163.13973999 209.59587097 C167.34694771 213.78212606 171.56556733 217.95668543 175.78710938 222.128479 C182.52559075 228.79178817 189.24573542 235.47360101 195.96769333 242.15357018 C198.31037175 244.47864993 200.65727746 246.79938968 203.0050354 249.11933899 C204.45735363 250.55842343 205.9096168 251.99756344 207.36181641 253.43676758 C208.0083316 254.07340332 208.6548468 254.71003906 209.32095337 255.3659668 C213.67978265 259.69351757 217.75210739 264.21355663 221.75 268.875 C222.4925 269.720625 223.235 270.56625 224 271.4375 C228.00351204 277.01382034 229.19639732 281.85985856 229.25 288.6875 C229.29640625 290.64623047 229.29640625 290.64623047 229.34375 292.64453125 C228.5988502 302.06322759 222.23469052 309.12237713 215.80633545 315.45358276 C215.01212071 316.25559746 214.21790596 317.05761215 213.39962411 317.88393033 C210.7530799 320.55031127 208.08915328 323.19858694 205.42480469 325.84716797 C203.51509489 327.76090856 201.60912176 329.67835575 199.70292664 331.59559631 C195.07158235 336.24910616 190.42690458 340.88907976 185.77721134 345.52424841 C181.99722704 349.29291544 178.22218211 353.06646524 174.45056915 356.84350967 C173.91264967 357.38219533 173.37473018 357.92088098 172.8205101 358.47589044 C171.72758321 359.57041604 170.6346675 360.66495282 169.54176286 361.75950064 C159.30735254 372.00814853 149.05770839 382.24145046 138.80273989 392.46952178 C130.01228964 401.2376287 121.23503985 410.01877081 112.46728516 418.80957031 C102.27286795 429.03076974 92.07035716 439.2437775 81.85487103 449.44392312 C80.76480155 450.53239993 79.67474247 451.62088716 78.58469391 452.70938492 C78.04843375 453.2448737 77.5121736 453.78036247 76.95966314 454.33207818 C73.18913595 458.09829612 69.42442559 461.87026842 65.66194916 465.64452744 C61.07463122 470.24589554 56.47845579 474.8381927 51.87083712 479.41923575 C49.52215011 481.75481939 47.17896026 484.09547299 44.84376335 486.44455528 C42.3077742 488.99422875 39.75684847 491.52796912 37.20159912 494.05831909 C36.107936 495.16871262 36.107936 495.16871262 34.99217868 496.30153835 C29.34767527 501.84000892 23.80802176 505.35599822 15.87109375 506.37109375 C2.97748067 506.16599916 -2.47243886 504.18362009 -11.74292183 495.30496597 C-13.72580517 493.4235402 -15.74517956 491.58240026 -17.75943851 489.7347126 C-29.49048036 478.92334611 -40.70782505 467.58191689 -51.98744893 456.30480814 C-53.80165303 454.49132225 -55.61657038 452.67855322 -57.43173027 450.86602402 C-63.78243165 444.52451377 -70.13060753 438.18048839 -76.47631836 431.83398438 C-82.36645152 425.94324786 -88.26217278 420.05814484 -94.16046625 414.17558014 C-99.25484844 409.09429395 -104.34534699 404.00913898 -109.43286604 398.92098129 C-112.4587127 395.89488081 -115.48605987 392.87032158 -118.51735115 389.84967422 C-121.36109071 387.01565387 -124.19993835 384.17682111 -127.0351944 381.33431435 C-128.07104011 380.29742848 -129.10856998 379.2622217 -130.1479702 378.228899 C-147.0014417 361.46756184 -147.0014417 361.46756184 -147.375 353.0625 C-147.33375 352.340625 -147.2925 351.61875 -147.25 350.875 C-147.84718338 350.61693069 -148.44436676 350.35886139 -149.05964661 350.0929718 C-154.27597205 347.1923726 -157.21343653 341.66161348 -159.02661133 336.13793945 C-159.54292023 334.32242581 -160.03928276 332.50116506 -160.51953125 330.67578125 C-160.80447952 329.64818192 -161.0894278 328.62058258 -161.38301086 327.56184387 C-162.3604627 324.00509394 -163.3071931 320.44108432 -164.25 316.875 C-164.60751384 315.53536103 -164.96541393 314.19582509 -165.32366943 312.85638428 C-168.01206187 302.79335055 -170.64337135 292.71568884 -173.26713181 282.63564682 C-175.36359815 274.58855309 -177.471907 266.54454554 -179.578125 258.5 C-179.81573484 257.59205877 -180.05334469 256.68411755 -180.29815483 255.74866295 C-184.60728191 239.28500701 -188.96855721 222.83565898 -193.36254215 206.39446449 C-194.78262482 201.0807334 -196.19865745 195.76593521 -197.61303711 190.45068359 C-201.38910636 176.26784678 -205.18359684 162.0906059 -209.04246998 147.9300375 C-211.12003605 140.30487802 -213.18436724 132.67620843 -215.24050426 125.04524326 C-216.71987032 119.55894583 -218.21625391 114.07768727 -219.72594738 108.59966278 C-220.66043762 105.19192299 -221.57782164 101.77974262 -222.49077415 98.36617661 C-222.9148274 96.79411446 -223.34568608 95.22386768 -223.78426552 93.65579605 C-227.02035524 82.0651139 -230.28193221 68.81701653 -225.1875 57.3125 C-218.26798086 45.79285361 -207.81680689 41.1717492 -195.18798828 37.9309082 C-193.75301908 37.548414 -193.75301908 37.548414 -192.28906059 37.15819263 C-189.13545309 36.32034866 -185.97800693 35.49807501 -182.8203125 34.67578125 C-180.57404253 34.08209971 -178.32803559 33.48742217 -176.08227539 32.89181519 C-170.0873543 31.30480545 -164.08900115 29.73117898 -158.08969879 28.16082382 C-151.89002464 26.5363878 -145.69290799 24.90225497 -139.49560547 23.26879883 C-132.06753095 21.31136543 -124.63922535 19.35484273 -117.20950317 17.40367126 C-103.76011918 13.86966272 -90.32370347 10.29370567 -76.90793228 6.63414192 C-72.20546207 5.35269666 -67.5005084 4.08039039 -62.7957592 2.80734158 C-59.2688723 1.85184668 -55.74405174 0.88979978 -52.22320557 -0.08773804 C-15.64931161 -10.23224221 -15.64931161 -10.23224221 0 0 Z " fill="#FB4549" transform="translate(255.25,6.125)"/>
<path d="M0 0 C4.55015782 0.58704067 8.89700558 1.3997918 13.32617188 2.59130859 C14.54242249 2.91647461 15.7586731 3.24164063 17.01177979 3.57666016 C18.33080103 3.93380417 19.64979018 4.2910667 20.96875 4.6484375 C22.35585359 5.02114272 23.7430422 5.39353165 25.13031006 5.765625 C28.82640311 6.7583557 32.52098131 7.75660695 36.21510315 8.7566452 C38.50006445 9.37501744 40.78532562 9.99226932 43.07067871 10.60919189 C52.72995063 13.21720867 62.38580302 15.8376475 72.03945923 18.46636963 C73.8831716 18.96820103 75.72710099 19.46923493 77.57104492 19.97021484 C83.32617283 21.53415942 89.07860823 23.10699818 94.82495117 24.70294189 C96.42517402 25.14641451 98.02623666 25.58686934 99.62817383 26.02410889 C101.80174227 26.61864515 103.97152657 27.22532557 106.140625 27.8359375 C107.31141602 28.16126465 108.48220703 28.4865918 109.68847656 28.82177734 C118.84165149 32.07842894 125.59166501 37.30707276 130 46 C135.82335391 61.41734319 129.74006202 77.08311095 125.4375 92.125 C124.4917738 95.46574709 123.55182221 98.80779865 122.62477112 102.15377808 C122.05098173 104.22157213 121.46611769 106.28633387 120.86875916 108.34744263 C120.60841385 109.27966644 120.34806854 110.21189026 120.07983398 111.17236328 C119.84666977 111.98649689 119.61350555 112.80063049 119.37327576 113.63943481 C118.90100967 116.6260067 118.93501884 118.13439491 120 121 C121.99915705 123.55818175 124.29074854 125.78519507 126.61181641 128.05004883 C127.64855499 129.08525414 127.64855499 129.08525414 128.70623779 130.14137268 C130.99547949 132.42272536 133.29845575 134.68968386 135.6015625 136.95703125 C137.19856565 138.54402845 138.79461155 140.13198947 140.38973999 141.72087097 C144.59694771 145.90712606 148.81556733 150.08168543 153.03710938 154.253479 C159.77559075 160.91678817 166.49573542 167.59860101 173.21769333 174.27857018 C175.56037175 176.60364993 177.90727746 178.92438968 180.2550354 181.24433899 C181.70735363 182.68342343 183.1596168 184.12256344 184.61181641 185.56176758 C185.2583316 186.19840332 185.9048468 186.83503906 186.57095337 187.4909668 C190.92978265 191.81851757 195.00210739 196.33855663 199 201 C199.7425 201.845625 200.485 202.69125 201.25 203.5625 C205.25351204 209.13882034 206.44639732 213.98485856 206.5 220.8125 C206.54640625 222.77123047 206.54640625 222.77123047 206.59375 224.76953125 C205.8488502 234.18822759 199.48469052 241.24737713 193.05633545 247.57858276 C192.26212071 248.38059746 191.46790596 249.18261215 190.64962411 250.00893033 C188.0030799 252.67531127 185.33915328 255.32358694 182.67480469 257.97216797 C180.76509489 259.88590856 178.85912176 261.80335575 176.95292664 263.72059631 C172.32158235 268.37410616 167.67690458 273.01407976 163.02721134 277.64924841 C159.24722704 281.41791544 155.47218211 285.19146524 151.70056915 288.96850967 C151.16264967 289.50719533 150.62473018 290.04588098 150.0705101 290.60089044 C148.97758321 291.69541604 147.8846675 292.78995282 146.79176286 293.88450064 C136.55735254 304.13314853 126.30770839 314.36645046 116.05273989 324.59452178 C107.26228964 333.3626287 98.48503985 342.14377081 89.71728516 350.93457031 C79.52286795 361.15576974 69.32035716 371.3687775 59.10487103 381.56892312 C58.01480155 382.65739993 56.92474247 383.74588716 55.83469391 384.83438492 C55.29843375 385.3698737 54.7621736 385.90536247 54.20966314 386.45707818 C50.43913595 390.22329612 46.67442559 393.99526842 42.91194916 397.76952744 C38.32463122 402.37089554 33.72845579 406.9631927 29.12083712 411.54423575 C26.77215011 413.87981939 24.42896026 416.22047299 22.09376335 418.56955528 C19.5577742 421.11922875 17.00684847 423.65296912 14.45159912 426.18331909 C13.357936 427.29371262 13.357936 427.29371262 12.24217868 428.42653835 C6.59767527 433.96500892 1.05802176 437.48099822 -6.87890625 438.49609375 C-19.77251933 438.29099916 -25.22243886 436.30862009 -34.49292183 427.42996597 C-36.47580517 425.5485402 -38.49517956 423.70740026 -40.50943851 421.8597126 C-52.24048036 411.04834611 -63.45782505 399.70691689 -74.73744893 388.42980814 C-76.55165303 386.61632225 -78.36657038 384.80355322 -80.18173027 382.99102402 C-86.53243165 376.64951377 -92.88060753 370.30548839 -99.22631836 363.95898438 C-105.11645152 358.06824786 -111.01217278 352.18314484 -116.91046625 346.30058014 C-122.00484844 341.21929395 -127.09534699 336.13413898 -132.18286604 331.04598129 C-135.2087127 328.01988081 -138.23605987 324.99532158 -141.26735115 321.97467422 C-144.11109071 319.14065387 -146.94993835 316.30182111 -149.7851944 313.45931435 C-150.82104011 312.42242848 -151.85856998 311.3872217 -152.8979702 310.353899 C-169.9198662 293.42505808 -169.9198662 293.42505808 -170.0390625 285.35546875 C-170.02617187 284.57816406 -170.01328125 283.80085938 -170 283 C-169.154375 283.3609375 -168.30875 283.721875 -167.4375 284.09375 C-165.7359375 284.78984375 -165.7359375 284.78984375 -164 285.5 C-162.329375 286.19609375 -162.329375 286.19609375 -160.625 286.90625 C-153.45578022 289.06937666 -147.06822284 287.85150949 -139.9375 286.25 C-139.1017041 286.06735596 -138.2659082 285.88471191 -137.40478516 285.6965332 C-128.00791133 283.61063177 -118.75242083 281.06644155 -109.49609375 278.4375 C-107.43506493 277.85356951 -105.37386022 277.27025952 -103.3125 276.6875 C-102.25369629 276.38811523 -101.19489258 276.08873047 -100.10400391 275.78027344 C-90.83513601 273.18394419 -81.50971732 270.85400389 -72.16333008 268.55541992 C-64.38928825 266.6314402 -56.69413091 264.52471889 -49.01074219 262.26928711 C-40.52456832 259.80542775 -31.95170937 257.7179339 -23.37207031 255.60766602 C-15.44256215 253.64478244 -7.58565629 251.51472626 0.24755859 249.19921875 C5.94295841 247.53302904 11.66764764 246.10784459 17.44458008 244.75268555 C30.28170984 241.71462068 42.48317126 238.8063234 50 227 C56.65907574 213.95931 53.79272725 203.34415629 49.77734375 190.06640625 C47.79014224 183.43251464 46.14282671 176.72600634 44.5 170 C42.25199191 160.85329385 39.85025558 151.78238484 37.20361328 142.74365234 C34.40491266 133.10617625 32.05536553 123.35922509 29.65087891 113.61767578 C27.7146419 105.83060407 25.59672916 98.09501924 23.41015625 90.375 C19.57449052 76.82110554 16.00909939 63.22877958 12.63476562 49.55322266 C10.65393343 41.58570606 8.47943908 33.67389774 6.234375 25.77734375 C5.91847412 24.66222412 5.60257324 23.54710449 5.27709961 22.39819336 C4.6468057 20.17772743 4.01237853 17.95842948 3.37329102 15.74047852 C1.88282721 10.49363476 0.57824923 5.42783274 0 0 Z " fill="#FEBE00" transform="translate(278,74)"/>
<path d="M0 0 C4.55015782 0.58704067 8.89700558 1.3997918 13.32617188 2.59130859 C14.54242249 2.91647461 15.7586731 3.24164063 17.01177979 3.57666016 C18.33080103 3.93380417 19.64979018 4.2910667 20.96875 4.6484375 C22.35585359 5.02114272 23.7430422 5.39353165 25.13031006 5.765625 C28.82640311 6.7583557 32.52098131 7.75660695 36.21510315 8.7566452 C38.50006445 9.37501744 40.78532562 9.99226932 43.07067871 10.60919189 C52.72995063 13.21720867 62.38580302 15.8376475 72.03945923 18.46636963 C73.8831716 18.96820103 75.72710099 19.46923493 77.57104492 19.97021484 C83.32617283 21.53415942 89.07860823 23.10699818 94.82495117 24.70294189 C96.42517402 25.14641451 98.02623666 25.58686934 99.62817383 26.02410889 C101.80174227 26.61864515 103.97152657 27.22532557 106.140625 27.8359375 C107.31141602 28.16126465 108.48220703 28.4865918 109.68847656 28.82177734 C118.84165149 32.07842894 125.59166501 37.30707276 130 46 C135.96052503 61.83286431 129.49168462 78.17054879 125.125 93.625 C124.46576384 96.01906816 123.80819836 98.41359701 123.15234375 100.80859375 C121.94870047 105.17414546 120.74257464 109.53886965 119.51220703 113.89697266 C119.14580612 115.19811508 119.14580612 115.19811508 118.77200317 116.52554321 C117.97511343 119.07976747 117.00956226 121.52327648 116 124 C115.59811241 125.41347991 115.22645862 126.83593416 114.88671875 128.265625 C114.69335938 129.06419922 114.5 129.86277344 114.30078125 130.68554688 C113.99720703 131.95495117 113.99720703 131.95495117 113.6875 133.25 C112.10921554 139.71814792 110.43132954 146.1282893 108.5 152.5 C106.67267575 158.54455503 105.06049587 164.61566222 103.5625 170.75 C101.91598443 177.48492533 100.13127407 184.15739091 98.1875 190.8125 C95.60682388 199.66198054 93.27790877 208.56877606 91 217.5 C88.57184216 227.0177114 86.05134943 236.49304823 83.29125977 245.92089844 C80.80578264 254.49658982 78.62105144 263.14788571 76.41513062 271.79849243 C74.16944795 280.59583618 71.79234157 289.32587282 69.1484375 298.01171875 C67.48991207 303.59960778 66.17204517 309.28449431 64.87426758 314.96557617 C62.45956585 325.11732825 58.68739764 334.84742489 49.46484375 340.57421875 C38.10103626 346.41511538 28.63735963 345.58009893 16.5 342.3125 C15.44538574 342.03849365 14.39077148 341.7644873 13.30419922 341.48217773 C5.78792702 339.51672558 -1.70330389 337.45935113 -9.1796875 335.34765625 C-16.13162967 333.39084624 -23.11241377 331.53933177 -30.08935547 329.67407227 C-35.35683792 328.26235376 -40.61820935 326.83182482 -45.870368 325.36399174 C-56.28255619 322.45542004 -66.7195247 319.64263567 -77.16053581 316.83964729 C-83.46507953 315.14436837 -89.76630886 313.43680147 -96.06781673 311.73027897 C-101.56682453 310.24177764 -107.06715003 308.75853873 -112.57055664 307.28637695 C-117.9504023 305.84699441 -123.32635087 304.39381443 -128.69995308 302.93130302 C-130.72980103 302.38142932 -132.76097735 301.83643291 -134.79353142 301.29664803 C-160.73407745 294.40006847 -160.73407745 294.40006847 -167 287 C-167 286.34 -167 285.68 -167 285 C-166.05640625 285.32484375 -166.05640625 285.32484375 -165.09375 285.65625 C-164.2378125 285.9346875 -163.381875 286.213125 -162.5 286.5 C-161.24703125 286.91765625 -161.24703125 286.91765625 -159.96875 287.34375 C-153.03989021 288.87539269 -146.73846373 287.77744795 -139.9375 286.25 C-139.1017041 286.06735596 -138.2659082 285.88471191 -137.40478516 285.6965332 C-128.00791133 283.61063177 -118.75242083 281.06644155 -109.49609375 278.4375 C-107.43506493 277.85356951 -105.37386022 277.27025952 -103.3125 276.6875 C-102.25369629 276.38811523 -101.19489258 276.08873047 -100.10400391 275.78027344 C-90.83513601 273.18394419 -81.50971732 270.85400389 -72.16333008 268.55541992 C-64.38928825 266.6314402 -56.69413091 264.52471889 -49.01074219 262.26928711 C-40.52456832 259.80542775 -31.95170937 257.7179339 -23.37207031 255.60766602 C-15.44256215 253.64478244 -7.58565629 251.51472626 0.24755859 249.19921875 C5.94295841 247.53302904 11.66764764 246.10784459 17.44458008 244.75268555 C30.28170984 241.71462068 42.48317126 238.8063234 50 227 C56.65907574 213.95931 53.79272725 203.34415629 49.77734375 190.06640625 C47.79014224 183.43251464 46.14282671 176.72600634 44.5 170 C42.25199191 160.85329385 39.85025558 151.78238484 37.20361328 142.74365234 C34.40491266 133.10617625 32.05536553 123.35922509 29.65087891 113.61767578 C27.7146419 105.83060407 25.59672916 98.09501924 23.41015625 90.375 C19.57449052 76.82110554 16.00909939 63.22877958 12.63476562 49.55322266 C10.65393343 41.58570606 8.47943908 33.67389774 6.234375 25.77734375 C5.91847412 24.66222412 5.60257324 23.54710449 5.27709961 22.39819336 C4.6468057 20.17772743 4.01237853 17.95842948 3.37329102 15.74047852 C1.88282721 10.49363476 0.57824923 5.42783274 0 0 Z " fill="#01FEFE" transform="translate(278,74)"/>
</svg>
